<?xml version="1.0" standalone="no"?>
<!DOCTYPE svg PUBLIC "-//W3C//DTD SVG 20010904//EN"
 "http://www.w3.org/TR/2001/REC-SVG-20010904/DTD/svg10.dtd">
<svg version="1.0" xmlns="http://www.w3.org/2000/svg"
 width="262.000000pt" height="262.000000pt" viewBox="0 0 262.000000 262.000000"
 preserveAspectRatio="xMidYMid meet">
<metadata>
Created by potrace 1.11, written by Peter Selinger 2001-2013
</metadata>
<g transform="translate(0.000000,262.000000) scale(0.100000,-0.100000)"
fill="#000000" stroke="none">
<path d="M358 2591 c-156 -50 -282 -176 -328 -330 -20 -64 -20 -89 -18 -971
l3 -905 23 -57 c51 -125 165 -239 290 -290 l57 -23 925 0 925 0 57 23 c125 51
239 165 290 290 l23 57 0 925 0 925 -23 57 c-51 125 -165 239 -290 290 l-57
23 -910 2 c-858 2 -913 1 -967 -16z m1247 -405 c150 -50 258 -144 326 -281 93
-188 90 -423 -6 -632 -109 -237 -330 -417 -592 -483 l-43 -11 0 -178 c0 -202
-1 -205 -74 -204 -54 1 -104 26 -116 58 -15 39 -14 1413 1 1431 15 19 92 18
129 -1 62 -32 60 -19 60 -484 l0 -424 41 7 c105 17 262 119 337 220 97 131
138 265 129 420 -8 149 -57 249 -162 328 -73 56 -132 72 -250 72 -277 -2 -465
-139 -530 -389 -20 -74 -22 -243 -5 -316 18 -75 56 -148 84 -159 33 -12 39
-36 20 -92 -18 -54 -72 -118 -99 -118 -27 0 -100 81 -134 148 -60 120 -76 193
-75 352 0 173 15 245 79 375 97 201 279 337 510 381 110 21 273 12 370 -20z"/>
</g>
</svg>
